# xmcd
#
# Track frame offsets: 
#        150
#        21866
#        43791
#        67725
#        97827
#        111712
#        128688
#        167447
#        182868
#        209595
#        231002
#        250661
#        275571
#
# Disc length: 4235 seconds
#
# Revision: 0
# Processed by: cddbd v1.4PL0 Copyright (c) Steve Scherf et al.
# Submitted via: ExactAudioCopy v0.95a3
#
DISCID=b110890d
DTITLE=Bryan Lee - Bryan Lee's Greatest Hits
DYEAR=2003
DGENRE=Country
TTITLE0=Memphis Bound
TTITLE1=Waiting On Ice
TTITLE2=Louisiana Woman
TTITLE3=Kt To The Highway
TTITLE4=You Better Believe It
TTITLE5=Heat Seeking Missle
TTITLE6=It Hurts Me Too
TTITLE7=Beautician Blues
TTITLE8=Noize With The Boyz
TTITLE9=Naples, FLA
TTITLE10=Sinking Fast
TTITLE11=Let Me Down Easy
TTITLE12=I'll Play The Blues For You
EXTD=
EXTT0=
EXTT1=
EXTT2=
EXTT3=
EXTT4=
EXTT5=
EXTT6=
EXTT7=
EXTT8=
EXTT9=
EXTT10=
EXTT11=
EXTT12=
PLAYORDER=
